<?xml version="1.0" encoding="UTF-8" standalone="no"?>
<!DOCTYPE svg PUBLIC "-//W3C//DTD SVG 1.1//EN" "http://www.w3.org/Graphics/SVG/1.1/DTD/svg11.dtd">
<svg version="1.1" xmlns="http://www.w3.org/2000/svg" xmlns:xlink="http://www.w3.org/1999/xlink" preserveAspectRatio="xMidYMid meet" viewBox="-0.9999558591683815 -1 27.999334149304186 27.999388887754478" width="24" height="24"><defs><path d="M16.38 0.22L17.36 0.5L18.3 0.86L19.19 1.33L20.02 1.87L20.8 2.5L21.5 3.2L22.13 3.97L22.67 4.81L23.13 5.7L23.5 6.64L23.78 7.62L23.94 8.64L24 9.7L23.94 10.75L23.78 11.78L23.5 12.76L23.13 13.7L22.67 14.59L22.13 15.42L21.5 16.19L20.8 16.9L20.02 17.52L19.19 18.07L18.3 18.53L17.36 18.9L16.38 19.17L15.36 19.34L14.3 19.4L13.92 19.39L13.53 19.37L13.16 19.33L12.79 19.28L12.42 19.21L12.06 19.13L11.7 19.04L11.35 18.93L11 18.81L10.66 18.68L10.33 18.54L10 18.38L9.68 18.21L9.37 18.04L9.06 17.85L3.06 23.85L3.01 23.89L2.97 23.92L2.92 23.95L2.87 23.97L2.82 23.98L2.77 23.99L2.72 24L2.67 24L2.61 23.99L2.56 23.98L2.51 23.97L2.46 23.95L2.41 23.92L2.37 23.89L2.33 23.85L0.15 21.67L0.11 21.63L0.08 21.58L0.05 21.54L0.03 21.49L0.02 21.44L0.01 21.39L0 21.33L0 21.28L0.01 21.23L0.02 21.18L0.03 21.13L0.05 21.08L0.08 21.03L0.11 20.99L0.15 20.95L6.15 14.94L5.96 14.63L5.77 14.3L5.6 13.98L5.45 13.64L5.3 13.3L5.17 12.96L5.05 12.61L4.95 12.26L4.86 11.9L4.78 11.54L4.72 11.18L4.67 10.81L4.63 10.44L4.61 10.07L4.6 9.7L4.66 8.64L4.83 7.62L5.1 6.64L5.47 5.7L5.93 4.81L6.48 3.97L7.1 3.2L7.81 2.5L8.58 1.87L9.41 1.33L10.3 0.86L11.24 0.5L12.22 0.22L13.24 0.06L14.3 0L15.36 0.06L16.38 0.22ZM11.73 3.6L10.6 4.21L9.62 5.02L8.82 6L8.2 7.12L7.82 8.37L7.68 9.7L7.82 11.03L8.2 12.27L8.82 13.4L9.62 14.38L10.6 15.18L11.73 15.79L12.97 16.18L14.3 16.32L15.63 16.18L16.87 15.79L18 15.18L18.98 14.38L19.79 13.4L20.4 12.27L20.78 11.03L20.92 9.7L20.78 8.36L20.4 7.12L19.79 6L18.98 5.02L18 4.21L16.87 3.6L15.63 3.22L14.3 3.08L12.97 3.22L11.73 3.6Z" id="c19URekgsa"></path></defs><g><g><use xlink:href="#c19URekgsa" opacity="1" fill="#000000" fill-opacity="1"></use><g><use xlink:href="#c19URekgsa" opacity="1" fill-opacity="0" stroke="#000000" stroke-width="1" stroke-opacity="0"></use></g></g></g></svg>